# xmcd
#
# Track frame offsets:
#	150
#	26218
#	52156
#	78623
#	104972
#	129778
#	163424
#	191016
#	215540
#	243098
#	285465
#	310058
#
# Disc length: 4419 seconds
#
# Revision: 1
# Processed by: cddbd v1.4PL0 Copyright (c) Steve Scherf et al.
# Submitted via: audiograbber 1.81.02
#
DISCID=b211410c
DTITLE=Mark May - Doll Maker
DYEAR=2002
DGENRE=Blues
TTITLE0=Doll Maker
TTITLE1=I'm A Gambler
TTITLE2=Dig Your Ride
TTITLE3=Gangsta's Blues
TTITLE4=Pimp Daddy
TTITLE5=Blue Monday
TTITLE6=Place Your Betts
TTITLE7=Gone Too Long
TTITLE8=Black Cat Bone
TTITLE9=You Ain't All That
TTITLE10=Busta Blues
TTITLE11=I Ain't Drunk
EXTD=
EXTT0=
EXTT1=
EXTT2=
EXTT3=
EXTT4=
EXTT5=
EXTT6=
EXTT7=
EXTT8=
EXTT9=
EXTT10=
EXTT11=
PLAYORDER=
